<mxfile host="app.diagrams.net" modified="2023-07-01T11:20:40.794Z" agent="Mozilla/5.0 (Windows NT 10.0; Win64; x64) AppleWebKit/537.36 (KHTML, like Gecko) Chrome/114.0.0.0 Safari/537.36" etag="SFvqMqMKX4-On9meYQ7E" version="21.5.2" type="github">
  <diagram name="Page-1" id="edf60f1a-56cd-e834-aa8a-f176f3a09ee4">
    <mxGraphModel dx="850" dy="790" grid="1" gridSize="10" guides="1" tooltips="1" connect="1" arrows="1" fold="1" page="1" pageScale="1" pageWidth="1100" pageHeight="850" background="none" math="0" shadow="0">
      <root>
        <mxCell id="0" />
        <mxCell id="1" parent="0" />
        <mxCell id="60e70716793133e9-32" style="edgeStyle=orthogonalEdgeStyle;rounded=0;html=1;labelBackgroundColor=none;startSize=5;endArrow=classicThin;endFill=1;endSize=5;jettySize=auto;orthogonalLoop=1;strokeWidth=1;fontFamily=Verdana;fontSize=8" parent="1" source="60e70716793133e9-4" target="wWd9iNRc8holUtV86Tgu-1" edge="1">
          <mxGeometry relative="1" as="geometry" />
        </mxCell>
        <mxCell id="60e70716793133e9-4" value="Iterate data source locations" style="rounded=0;whiteSpace=wrap;html=1;shadow=1;labelBackgroundColor=none;strokeWidth=1;fontFamily=Verdana;fontSize=8;align=center;" parent="1" vertex="1">
          <mxGeometry x="190" y="40" width="120" height="30" as="geometry" />
        </mxCell>
        <mxCell id="60e70716793133e9-37" value="No" style="edgeStyle=orthogonalEdgeStyle;rounded=0;html=1;labelBackgroundColor=none;startSize=5;endArrow=classicThin;endFill=1;endSize=5;jettySize=auto;orthogonalLoop=1;strokeWidth=1;fontFamily=Verdana;fontSize=8" parent="1" source="60e70716793133e9-5" target="wWd9iNRc8holUtV86Tgu-4" edge="1">
          <mxGeometry x="-0.5" y="10" relative="1" as="geometry">
            <mxPoint as="offset" />
          </mxGeometry>
        </mxCell>
        <mxCell id="wWd9iNRc8holUtV86Tgu-7" value="Yes" style="edgeStyle=orthogonalEdgeStyle;rounded=0;orthogonalLoop=1;jettySize=auto;html=1;" edge="1" parent="1" source="60e70716793133e9-5" target="60e70716793133e9-9">
          <mxGeometry relative="1" as="geometry" />
        </mxCell>
        <mxCell id="60e70716793133e9-5" value="Importer available?" style="rhombus;whiteSpace=wrap;html=1;rounded=0;shadow=1;labelBackgroundColor=none;strokeWidth=1;fontFamily=Verdana;fontSize=8;align=center;" parent="1" vertex="1">
          <mxGeometry x="200" y="220" width="100" height="60" as="geometry" />
        </mxCell>
        <mxCell id="wWd9iNRc8holUtV86Tgu-9" style="edgeStyle=orthogonalEdgeStyle;rounded=0;orthogonalLoop=1;jettySize=auto;html=1;" edge="1" parent="1" source="60e70716793133e9-9" target="wWd9iNRc8holUtV86Tgu-8">
          <mxGeometry relative="1" as="geometry" />
        </mxCell>
        <mxCell id="60e70716793133e9-9" value="Read data" style="whiteSpace=wrap;html=1;rounded=0;shadow=1;labelBackgroundColor=none;strokeWidth=1;fontFamily=Verdana;fontSize=8;align=center;" parent="1" vertex="1">
          <mxGeometry x="190" y="330" width="120" height="30" as="geometry" />
        </mxCell>
        <mxCell id="wWd9iNRc8holUtV86Tgu-3" style="edgeStyle=orthogonalEdgeStyle;rounded=0;orthogonalLoop=1;jettySize=auto;html=1;" edge="1" parent="1" source="wWd9iNRc8holUtV86Tgu-1" target="wWd9iNRc8holUtV86Tgu-2">
          <mxGeometry relative="1" as="geometry" />
        </mxCell>
        <mxCell id="wWd9iNRc8holUtV86Tgu-1" value="Iterate input files from data source location" style="rounded=0;whiteSpace=wrap;html=1;shadow=1;labelBackgroundColor=none;strokeWidth=1;fontFamily=Verdana;fontSize=8;align=center;" vertex="1" parent="1">
          <mxGeometry x="190" y="100" width="120" height="30" as="geometry" />
        </mxCell>
        <mxCell id="wWd9iNRc8holUtV86Tgu-6" style="edgeStyle=orthogonalEdgeStyle;rounded=0;orthogonalLoop=1;jettySize=auto;html=1;" edge="1" parent="1" source="wWd9iNRc8holUtV86Tgu-2" target="60e70716793133e9-5">
          <mxGeometry relative="1" as="geometry" />
        </mxCell>
        <mxCell id="wWd9iNRc8holUtV86Tgu-2" value="Search suitable importer" style="rounded=0;whiteSpace=wrap;html=1;shadow=1;labelBackgroundColor=none;strokeWidth=1;fontFamily=Verdana;fontSize=8;align=center;" vertex="1" parent="1">
          <mxGeometry x="190" y="160" width="120" height="30" as="geometry" />
        </mxCell>
        <mxCell id="wWd9iNRc8holUtV86Tgu-5" style="edgeStyle=orthogonalEdgeStyle;rounded=0;orthogonalLoop=1;jettySize=auto;html=1;" edge="1" parent="1" source="wWd9iNRc8holUtV86Tgu-4" target="wWd9iNRc8holUtV86Tgu-1">
          <mxGeometry relative="1" as="geometry">
            <Array as="points">
              <mxPoint x="80" y="115" />
            </Array>
          </mxGeometry>
        </mxCell>
        <mxCell id="wWd9iNRc8holUtV86Tgu-4" value="Log and skip file" style="rounded=0;whiteSpace=wrap;html=1;shadow=1;labelBackgroundColor=none;strokeWidth=1;fontFamily=Verdana;fontSize=8;align=center;" vertex="1" parent="1">
          <mxGeometry x="20" y="235" width="120" height="30" as="geometry" />
        </mxCell>
        <mxCell id="wWd9iNRc8holUtV86Tgu-13" style="edgeStyle=orthogonalEdgeStyle;rounded=0;orthogonalLoop=1;jettySize=auto;html=1;" edge="1" parent="1" source="wWd9iNRc8holUtV86Tgu-8" target="wWd9iNRc8holUtV86Tgu-12">
          <mxGeometry relative="1" as="geometry" />
        </mxCell>
        <mxCell id="wWd9iNRc8holUtV86Tgu-8" value="Store meta-data" style="whiteSpace=wrap;html=1;rounded=0;shadow=1;labelBackgroundColor=none;strokeWidth=1;fontFamily=Verdana;fontSize=8;align=center;" vertex="1" parent="1">
          <mxGeometry x="190" y="395" width="120" height="30" as="geometry" />
        </mxCell>
        <mxCell id="wWd9iNRc8holUtV86Tgu-11" style="rounded=0;orthogonalLoop=1;jettySize=auto;html=1;dashed=1;endArrow=none;endFill=0;" edge="1" parent="1" source="wWd9iNRc8holUtV86Tgu-10" target="wWd9iNRc8holUtV86Tgu-8">
          <mxGeometry relative="1" as="geometry" />
        </mxCell>
        <mxCell id="wWd9iNRc8holUtV86Tgu-10" value="- input&lt;br&gt;- input-hash&lt;br&gt;- output&lt;br&gt;- output-hash&lt;br&gt;- timestamp" style="shape=note;whiteSpace=wrap;html=1;backgroundOutline=1;darkOpacity=0.05;align=left;size=18;" vertex="1" parent="1">
          <mxGeometry x="360" y="300" width="80" height="95" as="geometry" />
        </mxCell>
        <mxCell id="wWd9iNRc8holUtV86Tgu-12" value="Store data" style="whiteSpace=wrap;html=1;rounded=0;shadow=1;labelBackgroundColor=none;strokeWidth=1;fontFamily=Verdana;fontSize=8;align=center;" vertex="1" parent="1">
          <mxGeometry x="190" y="460" width="120" height="30" as="geometry" />
        </mxCell>
        <mxCell id="wWd9iNRc8holUtV86Tgu-14" value="- ref to data source&lt;br&gt;- timestamp of import&lt;br&gt;- input record&lt;br&gt;- output record" style="shape=note;whiteSpace=wrap;html=1;backgroundOutline=1;darkOpacity=0.05;align=left;size=18;" vertex="1" parent="1">
          <mxGeometry x="460" y="340" width="120" height="95" as="geometry" />
        </mxCell>
        <mxCell id="wWd9iNRc8holUtV86Tgu-15" value="" style="endArrow=none;dashed=1;html=1;rounded=0;" edge="1" parent="1" source="wWd9iNRc8holUtV86Tgu-12" target="wWd9iNRc8holUtV86Tgu-14">
          <mxGeometry width="50" height="50" relative="1" as="geometry">
            <mxPoint x="280" y="530" as="sourcePoint" />
            <mxPoint x="330" y="480" as="targetPoint" />
          </mxGeometry>
        </mxCell>
      </root>
    </mxGraphModel>
  </diagram>
</mxfile>
